<?xml version="1.0" encoding="UTF-8" standalone="no"?>
<!DOCTYPE svg PUBLIC "-//W3C//DTD SVG 20010904//EN" "http://www.w3.org/TR/2001/REC-SVG-20010904/DTD/svg10.dtd">
<svg version="1.0" xmlns="http://www.w3.org/2000/svg" width="260.000000pt" height="260.000000pt" viewBox="0 0 260.000000 260.000000" preserveAspectRatio="xMidYMid meet">
<metadata>
Created by potrace 1.11, written by Peter Selinger 2001-2013
</metadata>
<g transform="translate(0.000000,260.000000) scale(0.100000,-0.100000)" fill="#000000" stroke="none">
<path d="M1717 2503 c-26 -10 -63 -31 -83 -47 -41 -33 -84 -116 -84 -164 0 -45 -20 -49 -88 -19 -31 14 -84 34 -117 45 -155 52 -153 52 -520 52 -232 0 -360 -4 -386 -11 -56 -17 -104 -62 -133 -124 -34 -70 -34 -130 -1 -199 29 -60 48 -81 113 -116 25 -14 47 -30 49 -36 2 -7 -37 -63 -88 -125 -50 -63 -107 -146 -125 -184 -36 -75 -199 -541 -214 -613 -15 -70 28 -174 90 -220 38 -28 112 -52 163 -52 46 0 121 37 161 79 42 44 60 40 101 -24 19 -31 35 -58 35 -61 0 -4 19 -33 43 -66 33 -47 86 -92 252 -217 310 -232 382 -284 417 -303 48 -26 124 -23 184 7 96 48 134 111 134 224 0 63 -4 83 -20 104 -22 28 -26 62 -9 73 6 3 58 17 115 30 134 30 241 75 318 134 33 25 83 62 110 81 26 19 61 43 76 54 16 11 63 44 107 74 91 63 160 118 186 146 81 91 74 226 -16 312 -57 55 -113 75 -198 71 -37 -1 -71 1 -76 5 -4 4 -6 82 -4 173 3 173 4 167 -54 349 -12 39 -35 111 -50 160 -63 205 -105 319 -127 342 -66 71 -173 98 -261 66z m159 -119 c26 -19 37 -43 69 -141 21 -65 66 -205 101 -311 74 -224 74 -221 48 -540 -10 -111 -14 -205 -11 -208 3 -3 32 14 64 39 91 70 124 87 169 87 81 0 150 -76 140 -153 -7 -57 0 -51 -295 -266 -57 -42 -133 -98 -170 -126 -88 -66 -225 -120 -396 -157 -77 -16 -169 -36 -203 -43 -35 -8 -66 -16 -69 -19 -3 -2 32 -30 76 -61 117 -82 140 -117 126 -192 -4 -25 -20 -50 -46 -75 -34 -32 -47 -38 -85 -38 -51 0 -49 -1 -247 140 -81 58 -158 112 -170 120 -174 117 -222 171 -367 417 -69 117 -128 212 -132 212 -4 1 -22 -45 -40 -102 -23 -75 -40 -110 -64 -134 -29 -30 -37 -33 -94 -33 -57 0 -65 3 -95 33 -58 58 -57 66 30 322 43 127 90 262 105 300 35 92 118 206 283 390 74 83 133 153 130 158 -2 4 -58 7 -124 7 -134 0 -168 11 -194 60 -20 39 -19 104 2 137 33 50 54 53 426 53 383 1 364 4 552 -77 163 -70 326 -135 330 -131 3 2 -11 53 -31 112 -40 118 -40 156 -1 201 27 31 93 56 127 48 14 -3 39 -16 56 -29z"/>
<path d="M903 1798 c-76 -89 -159 -187 -186 -217 -60 -70 -67 -94 -37 -126 22 -23 29 -25 168 -27 125 -3 146 -5 156 -20 8 -13 8 -23 0 -35 -10 -16 -32 -18 -180 -21 -93 -1 -172 -6 -176 -10 -4 -4 57 -111 135 -237 120 -193 147 -230 168 -233 36 -4 46 12 88 140 49 151 54 158 97 158 27 0 37 -5 45 -24 9 -20 3 -50 -40 -181 -28 -87 -51 -164 -51 -172 0 -9 8 -12 23 -8 210 49 514 129 524 137 7 6 13 21 13 33 0 18 -26 42 -117 107 -97 69 -119 89 -121 112 -4 32 22 66 50 66 23 0 44 -13 187 -118 62 -46 119 -86 127 -89 11 -4 14 10 14 68 0 41 7 164 16 274 8 109 13 209 9 222 -4 18 -12 23 -38 23 -24 -1 -57 -20 -137 -80 -58 -44 -114 -80 -126 -80 -26 0 -54 30 -54 58 0 23 38 56 183 157 48 33 86 65 87 71 0 7 -30 23 -67 37 -38 14 -106 42 -153 62 -215 92 -263 108 -289 99 -38 -14 -38 -49 3 -175 47 -144 46 -189 -5 -189 -32 0 -48 30 -105 205 -31 96 -60 175 -65 175 -5 0 -70 -73 -146 -162z"/>
</g>
</svg>